<svg width="17" height="18" fill="none" xmlns="http://www.w3.org/2000/svg"><path d="M16.959 5.647c-.038-.865-.178-1.46-.378-1.975a3.972 3.972 0 00-.942-1.444 4.006 4.006 0 00-1.44-.938c-.519-.2-1.11-.34-1.975-.378C11.352.87 11.076.86 8.866.86S6.379.87 5.51.908c-.865.038-1.46.178-1.975.379a3.972 3.972 0 00-1.444.941 4.02 4.02 0 00-.938 1.44c-.2.519-.34 1.11-.378 1.975-.042.872-.051 1.148-.051 3.359 0 2.21.01 2.486.047 3.355.038.865.178 1.46.379 1.975.207.546.528 1.036.941 1.443.407.414.9.735 1.44.938.519.2 1.11.34 1.976.379.868.038 1.144.047 3.355.047 2.21 0 2.486-.009 3.354-.047.865-.038 1.46-.178 1.975-.379a4.164 4.164 0 002.382-2.382c.2-.518.34-1.11.379-1.974.038-.869.047-1.145.047-3.355s-.003-2.487-.041-3.355zm-1.466 6.646c-.035.795-.168 1.224-.28 1.51a2.7 2.7 0 01-1.545 1.546c-.287.111-.719.245-1.511.28-.859.038-1.116.048-3.288.048-2.172 0-2.433-.01-3.288-.048-.795-.035-1.225-.169-1.511-.28a2.505 2.505 0 01-.935-.607 2.531 2.531 0 01-.607-.935c-.112-.286-.245-.719-.28-1.51-.038-.86-.048-1.117-.048-3.289s.01-2.433.048-3.288c.035-.795.168-1.225.28-1.51.13-.354.337-.675.61-.936.264-.27.582-.477.935-.607.286-.111.719-.245 1.51-.28.86-.038 1.117-.048 3.289-.048 2.175 0 2.433.01 3.288.048.795.035 1.225.169 1.51.28a2.5 2.5 0 01.936.607c.27.264.477.582.607.935.112.286.245.719.28 1.51.038.86.048 1.117.048 3.289s-.01 2.426-.048 3.285z" fill="#fff"/><path d="M8.865 4.82a4.183 4.183 0 000 8.364 4.183 4.183 0 000-8.364zm0 6.894a2.713 2.713 0 11.001-5.426 2.713 2.713 0 010 5.426zm5.324-7.06a.976.976 0 11-1.953 0 .976.976 0 011.953 0z" fill="#fff"/></svg>