<svg width="17" height="14" fill="none" xmlns="http://www.w3.org/2000/svg"><path d="M16.413 1.657a6.461 6.461 0 01-1.89.558A3.479 3.479 0 0015.966.263a6.279 6.279 0 01-2.08.855C13.284.428 12.426 0 11.49 0 9.674 0 8.212 1.587 8.212 3.533c0 .28.022.55.076.806-2.727-.143-5.14-1.55-6.76-3.695a3.768 3.768 0 00-.45 1.786c0 1.223.585 2.307 1.457 2.935a3.064 3.064 0 01-1.482-.435v.039c0 1.717 1.137 3.142 2.628 3.47a3.054 3.054 0 01-.86.117 2.7 2.7 0 01-.62-.06c.424 1.399 1.63 2.427 3.064 2.46a6.298 6.298 0 01-4.852 1.459A8.763 8.763 0 005.445 14c6.036 0 9.336-5.385 9.336-10.052 0-.156-.005-.307-.012-.457a6.844 6.844 0 001.644-1.834z" fill="#fff"/></svg>