<svg width="50" height="36" viewBox="0 0 50 36" fill="none" xmlns="http://www.w3.org/2000/svg">
<g opacity="0.25">
<path d="M31.2798 22.7794L31.2798 22.7794C32.0411 22.0177 32.0411 20.7833 31.2799 20.0216L31.2797 20.0215C30.5181 19.2603 29.2837 19.2603 28.522 20.0215L28.522 20.0216L26.7509 21.7926V12.9005C26.7509 11.8236 25.8777 10.9505 24.8009 10.9505C23.724 10.9505 22.8509 11.8236 22.8509 12.9005V21.7926L21.0798 20.0216L21.0797 20.0215C20.3181 19.2603 19.0837 19.2603 18.322 20.0215L18.3219 20.0216C17.5607 20.7833 17.5607 22.0177 18.3219 22.7794L18.322 22.7794L23.422 27.8794L23.422 27.8795C24.1837 28.6407 25.4181 28.6407 26.1797 27.8795L26.1798 27.8794L31.2798 22.7794Z" fill="white" stroke="white" stroke-width="0.5"/>
<path d="M11.456 16.5735C12.38 16.5004 13.1252 15.7866 13.2375 14.8663L13.2531 14.7389L38.1649 16.3243L38.1452 16.5735C38.1452 16.5735 38.1452 16.5735 38.1452 16.5735C41.9527 16.8752 44.9506 20.0633 44.9506 23.95C44.9506 28.0369 41.6374 31.35 37.5506 31.35H12.0506C7.96372 31.35 4.65058 28.0369 4.65058 23.95C4.65058 20.0633 7.64799 16.8752 11.456 16.5735ZM11.456 16.5735L11.4362 16.3243L11.456 16.5735ZM9.62043 12.9123C11.1673 5.95278 17.3748 0.750179 24.7998 0.75L9.62043 12.9123ZM9.62043 12.9123C4.54669 14.0244 0.75 18.543 0.75 23.95C0.75 30.191 5.80903 35.25 12.05 35.25H37.55C43.7906 35.25 48.85 30.191 48.85 23.95C48.85 18.5427 45.0533 14.0242 39.9796 12.9123C38.4325 5.95307 32.2255 0.750182 24.8002 0.75L9.62043 12.9123Z" fill="white" stroke="white" stroke-width="0.5"/>
</g>
</svg>
