<svg width="34" height="36" viewBox="0 0 34 36" fill="none" xmlns="http://www.w3.org/2000/svg">
<g opacity="0.25">
<mask id="path-1-outside-1_12_1369" maskUnits="userSpaceOnUse" x="-0.399902" y="0" width="34" height="36" fill="black">
<rect fill="white" x="-0.399902" width="34" height="36"/>
<path fill-rule="evenodd" clip-rule="evenodd" d="M32.6001 1H23.4571V15.8751L28.0286 11.625L32.6001 15.8751V1ZM32.6 21.1876V19.0624H28.0284V21.1876C28.0284 21.7509 27.7877 22.2916 27.3588 22.6899C26.9303 23.0886 26.3488 23.3125 25.7429 23.3125H7.45722C6.85136 23.3125 6.26978 23.0886 5.84131 22.6899C5.41242 22.2915 5.17167 21.7509 5.17167 21.1876V7.37503C5.17167 6.81139 5.41242 6.27107 5.84131 5.87234C6.2698 5.47398 6.85135 5.25015 7.45722 5.25015H18.8858V1.00003H7.45722C5.63886 1.00003 3.89458 1.67151 2.60866 2.86738C1.32275 4.06289 0.600098 5.68407 0.600098 7.37507V21.1876C0.600098 22.8782 1.32275 24.4998 2.60866 25.6953C3.89458 26.8908 5.63876 27.5627 7.45722 27.5627H25.7429C27.5612 27.5627 29.3055 26.8908 30.5914 25.6953C31.8774 24.4998 32.6 22.8783 32.6 21.1876L32.6 21.1876ZM7.45699 35C8.71934 35 9.7429 34.0488 9.7429 32.8752C9.7429 31.7016 8.71934 30.75 7.45699 30.75C6.19465 30.75 5.17149 31.7016 5.17149 32.8752C5.17149 34.0488 6.19465 35 7.45699 35ZM18.8858 32.8752C18.8858 34.0488 17.8626 35 16.6003 35C15.338 35 14.3148 34.0488 14.3148 32.8752C14.3148 31.7016 15.338 30.75 16.6003 30.75C17.8626 30.75 18.8858 31.7016 18.8858 32.8752ZM25.743 35C27.0053 35 28.0285 34.0488 28.0285 32.8752C28.0285 31.7016 27.0053 30.75 25.743 30.75C24.4806 30.75 23.4571 31.7016 23.4571 32.8752C23.4571 34.0488 24.4806 35 25.743 35Z"/>
</mask>
<path fill-rule="evenodd" clip-rule="evenodd" d="M32.6001 1H23.4571V15.8751L28.0286 11.625L32.6001 15.8751V1ZM32.6 21.1876V19.0624H28.0284V21.1876C28.0284 21.7509 27.7877 22.2916 27.3588 22.6899C26.9303 23.0886 26.3488 23.3125 25.7429 23.3125H7.45722C6.85136 23.3125 6.26978 23.0886 5.84131 22.6899C5.41242 22.2915 5.17167 21.7509 5.17167 21.1876V7.37503C5.17167 6.81139 5.41242 6.27107 5.84131 5.87234C6.2698 5.47398 6.85135 5.25015 7.45722 5.25015H18.8858V1.00003H7.45722C5.63886 1.00003 3.89458 1.67151 2.60866 2.86738C1.32275 4.06289 0.600098 5.68407 0.600098 7.37507V21.1876C0.600098 22.8782 1.32275 24.4998 2.60866 25.6953C3.89458 26.8908 5.63876 27.5627 7.45722 27.5627H25.7429C27.5612 27.5627 29.3055 26.8908 30.5914 25.6953C31.8774 24.4998 32.6 22.8783 32.6 21.1876L32.6 21.1876ZM7.45699 35C8.71934 35 9.7429 34.0488 9.7429 32.8752C9.7429 31.7016 8.71934 30.75 7.45699 30.75C6.19465 30.75 5.17149 31.7016 5.17149 32.8752C5.17149 34.0488 6.19465 35 7.45699 35ZM18.8858 32.8752C18.8858 34.0488 17.8626 35 16.6003 35C15.338 35 14.3148 34.0488 14.3148 32.8752C14.3148 31.7016 15.338 30.75 16.6003 30.75C17.8626 30.75 18.8858 31.7016 18.8858 32.8752ZM25.743 35C27.0053 35 28.0285 34.0488 28.0285 32.8752C28.0285 31.7016 27.0053 30.75 25.743 30.75C24.4806 30.75 23.4571 31.7016 23.4571 32.8752C23.4571 34.0488 24.4806 35 25.743 35Z" fill="white"/>
<path d="M23.4571 1V0.5H22.9571V1H23.4571ZM32.6001 1H33.1001V0.5H32.6001V1ZM23.4571 15.8751H22.9571V17.0226L23.7975 16.2413L23.4571 15.8751ZM28.0286 11.625L28.369 11.2588L28.0286 10.9423L27.6881 11.2588L28.0286 11.625ZM32.6001 15.8751L32.2596 16.2413L33.1001 17.0226V15.8751H32.6001ZM32.6 19.0624H33.1V18.5624H32.6V19.0624ZM32.6 21.1876H32.1V21.4449L32.3093 21.5945L32.6 21.1876ZM28.0284 19.0624V18.5624H27.5284V19.0624H28.0284ZM27.3588 22.6899L27.0185 22.3236L27.0182 22.3239L27.3588 22.6899ZM5.84131 22.6899L6.18193 22.3239L6.18159 22.3236L5.84131 22.6899ZM5.84131 5.87234L6.18175 6.23854L6.18175 6.23853L5.84131 5.87234ZM18.8858 5.25015V5.75015H19.3858V5.25015H18.8858ZM18.8858 1.00003H19.3858V0.500031H18.8858V1.00003ZM2.60866 2.86738L2.94911 3.23358L2.94917 3.23352L2.60866 2.86738ZM30.5914 25.6953L30.251 25.3291L30.5914 25.6953ZM32.6 21.1876H33.1V20.9303L32.8906 20.7808L32.6 21.1876ZM23.4571 1.5H32.6001V0.5H23.4571V1.5ZM23.9571 15.8751V1H22.9571V15.8751H23.9571ZM27.6881 11.2588L23.1166 15.5089L23.7975 16.2413L28.369 11.9912L27.6881 11.2588ZM32.9405 15.5089L28.369 11.2588L27.6881 11.9912L32.2596 16.2413L32.9405 15.5089ZM32.1001 1V15.8751H33.1001V1H32.1001ZM32.1 19.0624V21.1876H33.1V19.0624H32.1ZM28.0284 19.5624H32.6V18.5624H28.0284V19.5624ZM28.5284 21.1876V19.0624H27.5284V21.1876H28.5284ZM27.6991 23.0563C28.2255 22.5673 28.5284 21.8957 28.5284 21.1876H27.5284C27.5284 21.6061 27.3499 22.0158 27.0185 22.3236L27.6991 23.0563ZM25.7429 23.8125C26.47 23.8125 27.1747 23.5442 27.6994 23.0559L27.0182 22.3239C26.6859 22.6331 26.2275 22.8125 25.7429 22.8125V23.8125ZM7.45722 23.8125H25.7429V22.8125H7.45722V23.8125ZM5.50068 23.0559C6.02536 23.5442 6.73009 23.8125 7.45722 23.8125V22.8125C6.97263 22.8125 6.51419 22.6331 6.18193 22.3239L5.50068 23.0559ZM4.67167 21.1876C4.67167 21.8957 4.97463 22.5673 5.50103 23.0563L6.18159 22.3236C5.85021 22.0158 5.67167 21.6061 5.67167 21.1876H4.67167ZM4.67167 7.37503V21.1876H5.67167V7.37503H4.67167ZM5.50087 5.50615C4.97468 5.99532 4.67167 6.66649 4.67167 7.37503H5.67167C5.67167 6.95629 5.85016 6.54681 6.18175 6.23854L5.50087 5.50615ZM7.45722 4.75015C6.73008 4.75015 6.02549 5.01841 5.50086 5.50615L6.18175 6.23853C6.51411 5.92955 6.97261 5.75015 7.45722 5.75015V4.75015ZM18.8858 4.75015H7.45722V5.75015H18.8858V4.75015ZM18.3858 1.00003V5.25015H19.3858V1.00003H18.3858ZM7.45722 1.50003H18.8858V0.500031H7.45722V1.50003ZM2.94917 3.23352C4.13894 2.12706 5.76015 1.50003 7.45722 1.50003V0.500031C5.51757 0.500031 3.65022 1.21596 2.26816 2.50125L2.94917 3.23352ZM1.1001 7.37507C1.1001 5.82898 1.76048 4.33864 2.94911 3.23358L2.26822 2.50119C0.88502 3.78714 0.100098 5.53915 0.100098 7.37507H1.1001ZM1.1001 21.1876V7.37507H0.100098V21.1876H1.1001ZM2.94911 25.3291C1.76049 24.2241 1.1001 22.7333 1.1001 21.1876H0.100098C0.100098 23.0231 0.885005 24.7755 2.26822 26.0615L2.94911 25.3291ZM7.45722 27.0627C5.76012 27.0627 4.13896 26.4353 2.94911 25.3291L2.26822 26.0615C3.6502 27.3463 5.5174 28.0627 7.45722 28.0627V27.0627ZM25.7429 27.0627H7.45722V28.0627H25.7429V27.0627ZM30.251 25.3291C29.0612 26.4353 27.4399 27.0627 25.7429 27.0627V28.0627C27.6826 28.0627 29.5499 27.3463 30.9319 26.0615L30.251 25.3291ZM32.1 21.1876C32.1 22.7334 31.4396 24.2241 30.251 25.3291L30.9319 26.0615C32.3151 24.7756 33.1 23.0232 33.1 21.1876H32.1ZM32.3093 21.5945L32.3094 21.5945L32.8906 20.7808L32.8906 20.7807L32.3093 21.5945ZM9.2429 32.8752C9.2429 33.7388 8.47827 34.5 7.45699 34.5V35.5C8.96041 35.5 10.2429 34.3587 10.2429 32.8752H9.2429ZM7.45699 31.25C8.47815 31.25 9.2429 32.0114 9.2429 32.8752H10.2429C10.2429 31.3917 8.96053 30.25 7.45699 30.25V31.25ZM5.67149 32.8752C5.67149 32.0113 6.43596 31.25 7.45699 31.25V30.25C5.95334 30.25 4.67149 31.3918 4.67149 32.8752H5.67149ZM7.45699 34.5C6.43584 34.5 5.67149 33.7389 5.67149 32.8752H4.67149C4.67149 34.3586 5.95346 35.5 7.45699 35.5V34.5ZM16.6003 35.5C18.1038 35.5 19.3858 34.3586 19.3858 32.8752H18.3858C18.3858 33.7389 17.6215 34.5 16.6003 34.5V35.5ZM13.8148 32.8752C13.8148 34.3586 15.0968 35.5 16.6003 35.5V34.5C15.5791 34.5 14.8148 33.7389 14.8148 32.8752H13.8148ZM16.6003 30.25C15.0966 30.25 13.8148 31.3918 13.8148 32.8752H14.8148C14.8148 32.0113 15.5793 31.25 16.6003 31.25V30.25ZM19.3858 32.8752C19.3858 31.3918 18.104 30.25 16.6003 30.25V31.25C17.6213 31.25 18.3858 32.0113 18.3858 32.8752H19.3858ZM27.5285 32.8752C27.5285 33.7389 26.7641 34.5 25.743 34.5V35.5C27.2465 35.5 28.5285 34.3586 28.5285 32.8752H27.5285ZM25.743 31.25C26.764 31.25 27.5285 32.0113 27.5285 32.8752H28.5285C28.5285 31.3918 27.2466 30.25 25.743 30.25V31.25ZM23.9571 32.8752C23.9571 32.0114 24.7218 31.25 25.743 31.25V30.25C24.2394 30.25 22.9571 31.3917 22.9571 32.8752H23.9571ZM25.743 34.5C24.7217 34.5 23.9571 33.7388 23.9571 32.8752H22.9571C22.9571 34.3587 24.2395 35.5 25.743 35.5V34.5Z" fill="white" mask="url(#path-1-outside-1_12_1369)"/>
</g>
</svg>
