<?xml version="1.0" standalone="no"?>
<!DOCTYPE svg PUBLIC "-//W3C//DTD SVG 20010904//EN"
 "http://www.w3.org/TR/2001/REC-SVG-20010904/DTD/svg10.dtd">
<svg version="1.0" xmlns="http://www.w3.org/2000/svg"
 width="30" height="35" viewBox="0 0 1680.000000 1388.000000"
 preserveAspectRatio="xMidYMid meet">

<g transform="translate(0.000000,1388.000000) scale(0.100000,-0.100000)"
fill="#000000" stroke="none">
<path d="M11559 8946 c-2 -2 -58 -12 -124 -21 -559 -75 -971 -337 -1182 -751
-118 -231 -173 -467 -173 -749 0 -524 184 -939 531 -1197 369 -276 860 -374
1404 -282 158 26 342 74 359 93 15 16 15 36 -4 247 -11 126 -20 231 -20 235 0
3 -51 -11 -114 -33 -355 -121 -725 -113 -1011 21 -250 117 -406 311 -482 599
-35 132 -43 355 -18 504 71 433 310 691 744 805 77 20 128 26 261 30 191 6
308 -8 504 -62 66 -18 123 -31 125 -29 3 3 10 112 24 381 3 54 1 88 -7 99 -14
18 -144 52 -344 89 -108 20 -165 25 -301 25 -92 0 -170 -2 -172 -4z"/>
<path d="M13695 8920 c-337 -69 -553 -177 -755 -380 -271 -270 -400 -623 -400
-1090 0 -474 104 -803 339 -1075 200 -231 475 -379 816 -441 154 -27 443 -26
597 4 508 97 859 376 1038 826 69 174 120 454 120 661 0 172 -42 433 -95 592
-118 352 -339 611 -660 771 -113 56 -236 95 -414 131 -211 42 -381 43 -586 1z
m492 -416 c164 -37 327 -147 428 -289 110 -155 152 -290 189 -615 16 -145 8
-383 -19 -526 -74 -398 -277 -645 -595 -725 -73 -19 -103 -21 -224 -16 -162 6
-225 21 -346 80 -105 51 -225 165 -289 274 -129 219 -188 535 -163 876 22 300
79 486 197 652 134 187 300 280 555 309 56 6 199 -4 267 -20z"/>
<path d="M5878 8904 c-5 -4 -8 -670 -8 -1481 l0 -1473 295 0 295 0 0 544 c0
482 2 545 16 557 11 9 90 15 302 20 158 4 315 13 349 18 284 50 506 210 643
464 83 154 117 308 106 481 -24 396 -243 679 -621 805 -179 60 -218 63 -820
68 -302 3 -553 2 -557 -3z m1015 -469 c38 -8 92 -25 120 -38 263 -122 320
-504 109 -729 -53 -57 -104 -89 -188 -119 -52 -19 -82 -21 -264 -23 l-205 -1
-3 447 c-2 396 0 448 14 462 21 22 317 22 417 1z"/>
<path d="M8130 7425 l0 -1475 885 0 885 0 0 255 0 255 -578 0 c-436 0 -581 3
-590 12 -9 9 -12 105 -12 369 0 197 3 364 6 373 5 14 59 16 498 16 270 0 508
3 529 6 l37 7 -2 231 -3 231 -520 3 c-475 2 -521 4 -532 19 -19 25 -18 636 0
652 10 8 184 12 588 13 l574 3 3 253 2 252 -885 0 -885 0 0 -1475z"/>
<path d="M3870 8849 c-207 -25 -374 -53 -496 -84 -593 -152 -1013 -493 -1270
-1030 l-64 -135 -346 0 -346 0 6 -27 c3 -16 22 -129 42 -253 42 -263 86 -444
144 -591 133 -337 364 -631 655 -832 49 -34 162 -98 250 -143 l160 -81 3 -341
c2 -322 3 -342 20 -342 45 0 413 52 500 71 152 33 355 103 497 172 180 88 327
190 458 316 178 172 287 325 399 558 32 68 67 127 78 133 11 6 144 10 344 10
304 0 326 1 326 18 0 9 -14 112 -30 227 -51 353 -114 566 -236 805 -88 170
-177 293 -314 431 -167 169 -354 299 -559 390 -134 59 -121 17 -121 404 0 262
-3 335 -12 334 -7 -1 -47 -6 -88 -10z m-320 -1189 l0 -710 210 0 210 0 0 380
c0 209 3 380 7 380 3 0 31 -14 62 -31 338 -191 561 -484 680 -895 25 -85 26
-110 5 -118 -9 -3 -321 -6 -695 -6 l-679 0 0 -205 0 -205 360 0 c411 0 381 9
331 -95 -69 -146 -238 -315 -463 -462 -175 -115 -410 -213 -510 -213 l-28 0 0
700 0 700 -210 0 -210 0 0 -365 c0 -414 7 -385 -85 -341 -286 134 -684 697
-685 968 l0 38 703 2 702 3 0 205 0 205 -367 3 c-417 3 -388 -5 -344 87 86
182 358 426 636 569 127 66 268 113 343 115 l27 1 0 -710z"/>
<path d="M7221 5498 c-31 -17 -26 -5 -137 -288 -53 -135 -98 -251 -101 -258
-4 -10 9 -12 57 -10 l63 3 14 50 c8 28 20 56 25 63 7 8 43 12 114 12 120 0
136 -8 155 -85 l11 -45 59 0 c33 0 59 4 59 10 0 5 -40 109 -88 232 -49 123
-94 240 -101 260 -7 20 -17 41 -24 46 -21 18 -81 23 -106 10z m83 -219 c20
-55 36 -105 36 -110 0 -5 -36 -9 -81 -9 l-81 0 6 25 c14 54 68 195 76 195 4 0
24 -45 44 -101z"/>
<path d="M8403 5503 l-33 -4 0 -280 0 -279 55 0 54 0 3 106 3 107 67 3 c83 4
138 30 168 80 28 44 37 114 20 154 -17 41 -72 87 -117 99 -46 12 -176 21 -220
14z m204 -107 c22 -19 28 -32 28 -66 0 -50 -32 -83 -90 -94 -56 -11 -65 3 -65
100 l0 84 49 0 c38 0 56 -6 78 -24z"/>
<path d="M9786 5497 c-12 -9 -226 -533 -226 -553 0 -2 24 -4 54 -4 l54 0 17
50 c24 73 42 81 166 78 l104 -3 24 -62 25 -63 58 0 c32 0 58 2 58 4 0 11 -213
542 -220 550 -13 13 -97 16 -114 3z m96 -226 c21 -57 35 -107 32 -112 -6 -10
-147 -13 -156 -3 -9 8 65 225 76 221 5 -2 27 -50 48 -106z"/>
<path d="M13838 5489 c-13 -13 -65 -99 -116 -191 -141 -253 -131 -253 -132 -5
l0 207 -50 0 -50 0 0 -280 0 -281 67 3 67 3 110 202 c61 111 114 202 119 203
4 0 7 -92 7 -206 l0 -205 53 3 52 3 3 269 c1 148 -1 273 -6 278 -4 4 -29 11
-54 14 -40 6 -50 3 -70 -17z"/>
<path d="M15060 5500 c-58 -4 -117 -12 -132 -18 -63 -25 -107 -114 -93 -189 5
-28 20 -50 56 -84 l50 -46 -54 -90 c-90 -147 -88 -133 -12 -133 l65 0 50 100
c51 101 72 123 112 112 16 -4 18 -17 18 -108 l0 -104 55 0 55 0 0 285 0 285
-32 -2 c-18 0 -80 -4 -138 -8z m60 -170 c0 -86 -1 -91 -24 -100 -60 -22 -146
39 -146 104 0 58 38 85 118 86 l52 0 0 -90z"/>
<path d="M5860 5220 l0 -280 55 0 55 0 0 235 0 235 110 0 110 0 0 45 0 45
-165 0 -165 0 0 -280z"/>
<path d="M10950 5220 l0 -280 55 0 55 0 0 120 0 120 115 0 115 0 0 -120 0
-120 60 0 60 0 0 280 0 280 -55 0 -55 0 0 -96 c0 -134 0 -134 -115 -134 -51 0
-100 3 -109 6 -13 5 -16 25 -16 115 l0 109 -55 0 -55 0 0 -280z"/>
<path d="M12230 5455 l0 -44 78 -3 77 -3 3 -232 2 -233 55 0 55 0 0 235 0 235
80 0 80 0 0 45 0 45 -215 0 -215 0 0 -45z"/>
</g>
</svg>
