<?xml version="1.0" standalone="no"?>
<!DOCTYPE svg PUBLIC "-//W3C//DTD SVG 20010904//EN"
 "http://www.w3.org/TR/2001/REC-SVG-20010904/DTD/svg10.dtd">
<svg version="1.0" xmlns="http://www.w3.org/2000/svg"
 width="21" height="25" viewBox="0 0 180.000000 180.000000"
 preserveAspectRatio="xMidYMid meet">

<g transform="translate(0.000000,180.000000) scale(0.100000,-0.100000)"
fill="#000000" stroke="none">
<path d="M0 1475 l0 -65 215 0 215 0 0 -575 0 -575 75 0 75 0 0 575 0 575 210
0 210 0 0 65 0 65 -500 0 -500 0 0 -65z"/>
<path d="M628 1224 c-5 -4 -8 -26 -8 -49 l0 -42 79 -6 c105 -7 184 -42 249
-111 49 -52 92 -141 92 -191 l0 -25 -210 0 -210 0 0 -45 0 -45 210 0 210 0 0
-35 c0 -52 -36 -138 -80 -187 -65 -74 -191 -128 -300 -128 l-40 0 0 -51 0 -52
88 6 c301 22 482 202 482 482 0 231 -121 399 -327 456 -72 20 -224 35 -235 23z"/>
<path d="M1102 1157 c26 -23 58 -60 72 -81 l26 -39 0 82 0 81 -72 0 -73 0 47
-43z"/>
<path d="M1537 1068 c-42 -73 -166 -284 -275 -468 l-198 -335 75 -3 c41 -2 79
-1 86 2 6 2 96 158 201 345 147 267 193 341 207 339 16 -3 18 -26 20 -343 l2
-340 73 -3 72 -3 0 471 0 470 -93 0 -93 0 -77 -132z"/>
<path d="M347 1043 c-29 -31 -61 -100 -49 -106 4 -2 24 -7 45 -11 l37 -7 0 76
c0 41 -1 75 -3 75 -2 0 -15 -12 -30 -27z"/>
<path d="M312 563 c-28 -5 -24 -29 16 -87 43 -62 52 -58 52 23 0 77 0 77 -68
64z"/>
</g>
</svg>
